# Blender v2.79 (sub 0) OBJ File: ''
# www.blender.org
o Navmesh_Navmesh.001
v -24.100000 0.499996 10.299999
v -14.799999 0.499996 10.599999
v -15.400000 0.499996 10.900000
v -15.400000 0.499996 18.700001
v -13.299999 0.499996 19.000000
v -13.599999 0.499996 24.100000
v -24.100000 0.499996 24.100000
v -24.100000 0.499996 17.200001
v -5.799999 0.499996 19.000000
v -5.500000 0.499996 24.100000
v -3.699999 0.499996 18.700001
v -3.699999 0.499996 11.200000
v 0.500002 0.499996 5.199999
v 6.800001 0.499996 5.199999
v 13.100002 0.499996 5.199999
v 13.100002 0.499996 10.599999
v 9.500000 0.499996 17.200001
v 9.800003 0.499996 18.400000
v 12.500000 0.499996 19.600000
v 12.500000 0.499996 24.100000
v 3.500002 0.499996 24.100000
v 13.700001 0.499996 19.000000
v 16.400002 0.499996 12.700000
v 24.200001 0.499996 12.700000
v 24.200001 0.499996 24.100000
v 14.000000 0.499996 4.900000
v 14.000000 0.499996 -0.500002
v 24.200001 0.499996 -0.500002
v 24.200001 0.499996 6.099998
v 15.800003 0.499996 11.499999
v -11.499999 0.499996 10.599999
v -11.499999 0.499996 4.900000
v -9.099999 0.499996 4.299999
v -8.500000 0.499996 2.799999
v -0.099998 0.499996 2.799999
v -0.099998 0.499996 4.900000
v -4.000000 0.499996 10.599999
v -24.100000 0.499996 4.000000
v -24.100000 0.499996 -2.300001
v -14.500000 0.499996 -2.300001
v -12.400000 0.499996 4.599998
v -11.200000 0.499996 -4.100000
v -11.200000 0.499996 -10.100002
v 0.500002 0.499996 -10.100002
v 0.800001 0.499996 -3.200001
v -0.099998 0.499996 -2.900002
v -10.299999 0.499996 -3.500002
v 14.000000 0.499996 -2.900002
v 13.400002 0.499996 -3.200001
v 13.700001 0.499996 -12.200001
v 15.800003 0.499996 -11.900002
v 16.100002 0.499996 -14.000000
v 24.200001 0.499996 -13.700001
v 24.200001 0.499996 -7.100002
v -24.100000 0.499996 -13.100002
v -18.100000 0.499996 -13.100002
v -17.799999 0.499996 -12.500000
v -14.500000 0.499996 -12.500000
v -14.200000 0.499996 -15.500000
v -12.400000 0.499996 -15.500000
v -12.400000 0.499996 -10.400002
v -14.200000 0.499996 -3.200001
v 2.000002 0.499996 -10.400002
v 1.700001 0.499996 -13.700001
v 7.700001 0.499996 -13.700001
v 8.000000 0.499996 -13.100002
v 7.100002 0.499996 -2.900002
v -16.299999 0.499996 -24.200001
v -16.299999 0.499996 -20.900002
v -18.100000 0.499996 -20.600002
v -24.100000 0.499996 -24.200001
v -0.099998 0.499996 -18.500000
v 0.200001 0.499996 -24.200001
v 6.200001 0.499996 -24.200001
v 12.500000 0.499996 -24.200001
v 11.900002 0.499996 -16.700001
v 8.300003 0.499996 -17.300003
v 2.000002 0.499996 -18.200001
v 16.100002 0.499996 -16.100002
v 24.200001 0.499996 -24.200001
v -8.199999 0.499996 -24.200001
v -12.099999 0.499996 -18.500000
v -14.200000 0.499996 -20.600002
vn 0.0000 1.0000 0.0000
s off
f 6//1 5//1 4//1
f 3//1 2//1 1//1
f 8//1 7//1 4//1
f 4//1 7//1 6//1
f 1//1 8//1 3//1
f 3//1 8//1 4//1
f 6//1 10//1 5//1
f 5//1 10//1 9//1
f 21//1 11//1 10//1
f 10//1 11//1 9//1
f 21//1 20//1 18//1
f 18//1 20//1 19//1
f 16//1 15//1 14//1
f 12//1 11//1 14//1
f 14//1 11//1 16//1
f 16//1 11//1 17//1
f 17//1 11//1 21//1
f 14//1 13//1 12//1
f 21//1 18//1 17//1
f 22//1 19//1 20//1
f 24//1 23//1 25//1
f 25//1 23//1 22//1
f 25//1 22//1 20//1
f 30//1 26//1 16//1
f 16//1 26//1 15//1
f 23//1 24//1 29//1
f 29//1 28//1 23//1
f 23//1 28//1 30//1
f 30//1 28//1 26//1
f 26//1 28//1 27//1
f 33//1 32//1 31//1
f 36//1 37//1 13//1
f 13//1 37//1 12//1
f 36//1 35//1 37//1
f 37//1 35//1 34//1
f 37//1 34//1 33//1
f 37//1 33//1 31//1
f 31//1 32//1 41//1
f 40//1 39//1 41//1
f 41//1 39//1 38//1
f 41//1 38//1 2//1
f 41//1 2//1 31//1
f 38//1 1//1 2//1
f 43//1 42//1 47//1
f 46//1 45//1 44//1
f 34//1 35//1 46//1
f 44//1 43//1 46//1
f 46//1 43//1 47//1
f 46//1 47//1 34//1
f 54//1 53//1 51//1
f 51//1 53//1 52//1
f 48//1 51//1 49//1
f 49//1 51//1 50//1
f 54//1 51//1 28//1
f 28//1 51//1 48//1
f 28//1 48//1 27//1
f 61//1 60//1 58//1
f 58//1 60//1 59//1
f 57//1 55//1 61//1
f 61//1 55//1 62//1
f 62//1 55//1 40//1
f 40//1 55//1 39//1
f 61//1 58//1 57//1
f 57//1 56//1 55//1
f 62//1 42//1 61//1
f 61//1 42//1 43//1
f 63//1 66//1 64//1
f 64//1 66//1 65//1
f 49//1 50//1 67//1
f 67//1 50//1 66//1
f 67//1 66//1 63//1
f 67//1 63//1 45//1
f 63//1 44//1 45//1
f 71//1 70//1 68//1
f 68//1 70//1 69//1
f 71//1 55//1 70//1
f 70//1 55//1 56//1
f 73//1 72//1 78//1
f 77//1 78//1 65//1
f 65//1 78//1 64//1
f 74//1 77//1 75//1
f 75//1 77//1 76//1
f 77//1 74//1 78//1
f 78//1 74//1 73//1
f 79//1 52//1 53//1
f 75//1 76//1 79//1
f 53//1 80//1 79//1
f 79//1 80//1 75//1
f 83//1 59//1 82//1
f 82//1 59//1 60//1
f 82//1 72//1 81//1
f 81//1 72//1 73//1
f 68//1 69//1 83//1
f 82//1 81//1 83//1
f 83//1 81//1 68//1
